<svg width="109" height="40" viewBox="0 0 109 40" fill="none" xmlns="http://www.w3.org/2000/svg">
<path d="M26.959 13L26.075 10.11H21.655L20.771 13H18L22.284 0.811H25.429L29.73 13H26.959ZM24.579 5.129C24.5223 4.93633 24.4487 4.69267 24.358 4.398C24.2673 4.10333 24.1767 3.803 24.086 3.497C23.9953 3.191 23.9217 2.92467 23.865 2.698C23.8083 2.92467 23.729 3.208 23.627 3.548C23.5363 3.87667 23.4457 4.194 23.355 4.5C23.2757 4.79467 23.2133 5.00433 23.168 5.129L22.301 7.951H25.463L24.579 5.129ZM35.3333 3.548C36.3306 3.548 37.1296 3.82 37.7303 4.364C38.331 4.89667 38.6313 5.758 38.6313 6.948V13H36.0983V7.577C36.0983 6.90833 35.9793 6.40967 35.7413 6.081C35.5033 5.741 35.1236 5.571 34.6023 5.571C33.8316 5.571 33.3046 5.83733 33.0213 6.37C32.738 6.89133 32.5963 7.645 32.5963 8.631V13H30.0633V3.718H32.0013L32.3413 4.908H32.4773C32.6813 4.59067 32.9306 4.33567 33.2253 4.143C33.52 3.939 33.8486 3.79167 34.2113 3.701C34.574 3.599 34.948 3.548 35.3333 3.548ZM45.5062 3.548C46.5035 3.548 47.3025 3.82 47.9032 4.364C48.5038 4.89667 48.8042 5.758 48.8042 6.948V13H46.2712V7.577C46.2712 6.90833 46.1522 6.40967 45.9142 6.081C45.6762 5.741 45.2965 5.571 44.7752 5.571C44.0045 5.571 43.4775 5.83733 43.1942 6.37C42.9108 6.89133 42.7692 7.645 42.7692 8.631V13H40.2362V3.718H42.1742L42.5142 4.908H42.6502C42.8542 4.59067 43.1035 4.33567 43.3982 4.143C43.6928 3.939 44.0215 3.79167 44.3842 3.701C44.7468 3.599 45.1208 3.548 45.5062 3.548ZM58.926 3.718V13H56.988L56.648 11.81H56.512C56.3193 12.1273 56.07 12.388 55.764 12.592C55.4693 12.7847 55.1407 12.9263 54.778 13.017C54.4153 13.119 54.0413 13.17 53.656 13.17C52.9987 13.17 52.4207 13.051 51.922 12.813C51.4233 12.575 51.038 12.2067 50.766 11.708C50.494 11.2093 50.358 10.5633 50.358 9.77V3.718H52.891V9.141C52.891 9.79833 53.01 10.297 53.248 10.637C53.486 10.977 53.8657 11.147 54.387 11.147C54.9083 11.147 55.3107 11.028 55.594 10.79C55.8887 10.552 56.0927 10.2063 56.206 9.753C56.3307 9.29967 56.393 8.74433 56.393 8.087V3.718H58.926ZM63.1149 3.718V13H60.5819V3.718H63.1149ZM61.8569 0.0799991C62.2309 0.0799991 62.5539 0.170666 62.8259 0.352C63.0979 0.522 63.2339 0.844999 63.2339 1.321C63.2339 1.78567 63.0979 2.10867 62.8259 2.29C62.5539 2.47133 62.2309 2.562 61.8569 2.562C61.4715 2.562 61.1429 2.47133 60.8709 2.29C60.6102 2.10867 60.4799 1.78567 60.4799 1.321C60.4799 0.844999 60.6102 0.522 60.8709 0.352C61.1429 0.170666 61.4715 0.0799991 61.8569 0.0799991ZM68.6715 11.147C68.9549 11.147 69.2269 11.1187 69.4875 11.062C69.7482 11.0053 70.0089 10.9373 70.2695 10.858V12.745C69.9975 12.8583 69.6575 12.9547 69.2495 13.034C68.8529 13.1247 68.4165 13.17 67.9405 13.17C67.3852 13.17 66.8865 13.0793 66.4445 12.898C66.0139 12.7167 65.6682 12.405 65.4075 11.963C65.1582 11.5097 65.0335 10.8863 65.0335 10.093V5.622H63.8265V4.551L65.2205 3.701L65.9515 1.746H67.5665V3.718H70.1675V5.622H67.5665V10.093C67.5665 10.4443 67.6685 10.7107 67.8725 10.892C68.0765 11.062 68.3429 11.147 68.6715 11.147ZM69.8066 3.718H72.5776L74.3286 8.937C74.3853 9.107 74.4306 9.277 74.4646 9.447C74.51 9.617 74.544 9.79267 74.5666 9.974C74.6006 10.1553 74.6233 10.348 74.6346 10.552H74.6856C74.7196 10.2573 74.765 9.97967 74.8216 9.719C74.8896 9.447 74.9633 9.18633 75.0426 8.937L76.7596 3.718H79.4796L75.5526 14.19C75.3146 14.8247 75.003 15.3573 74.6176 15.788C74.2436 16.2187 73.8073 16.5417 73.3086 16.757C72.81 16.9723 72.266 17.08 71.6766 17.08C71.3933 17.08 71.144 17.063 70.9286 17.029C70.7246 17.0063 70.5433 16.978 70.3846 16.944V14.938C70.5093 14.9607 70.6566 14.9833 70.8266 15.006C71.008 15.0287 71.195 15.04 71.3876 15.04C71.739 15.04 72.0393 14.9663 72.2886 14.819C72.5493 14.6717 72.7646 14.4677 72.9346 14.207C73.1046 13.9577 73.2406 13.6857 73.3426 13.391L73.4956 12.932L69.8066 3.718Z" fill="white"/>
<path d="M10.22 29.04C10.22 29.88 10.0133 30.6133 9.6 31.24C9.18667 31.8667 8.58667 32.3533 7.8 32.7C7.02667 33.0333 6.08 33.2 4.96 33.2C4.46667 33.2 3.98 33.1667 3.5 33.1C3.03333 33.0333 2.58 32.94 2.14 32.82C1.71333 32.6867 1.30667 32.5267 0.92 32.34V29.52C1.6 29.8133 2.3 30.0867 3.02 30.34C3.75333 30.58 4.48 30.7 5.2 30.7C5.69333 30.7 6.08667 30.6333 6.38 30.5C6.68667 30.3667 6.90667 30.1867 7.04 29.96C7.18667 29.7333 7.26 29.4733 7.26 29.18C7.26 28.82 7.13333 28.5133 6.88 28.26C6.64 28.0067 6.31333 27.7733 5.9 27.56C5.48667 27.3333 5.01333 27.0933 4.48 26.84C4.14667 26.68 3.78667 26.4933 3.4 26.28C3.01333 26.0533 2.64 25.78 2.28 25.46C1.93333 25.1267 1.64667 24.7267 1.42 24.26C1.19333 23.7933 1.08 23.2333 1.08 22.58C1.08 21.7267 1.27333 21 1.66 20.4C2.06 19.7867 2.62 19.32 3.34 19C4.07333 18.68 4.93333 18.52 5.92 18.52C6.66667 18.52 7.37333 18.6067 8.04 18.78C8.72 18.9533 9.42667 19.2 10.16 19.52L9.18 21.88C8.52667 21.6133 7.94 21.4067 7.42 21.26C6.9 21.1133 6.36667 21.04 5.82 21.04C5.44667 21.04 5.12667 21.1 4.86 21.22C4.59333 21.34 4.38667 21.5067 4.24 21.72C4.10667 21.9333 4.04 22.1867 4.04 22.48C4.04 22.8133 4.14 23.1 4.34 23.34C4.54 23.5667 4.84 23.7867 5.24 24C5.64 24.2133 6.14 24.4667 6.74 24.76C7.47333 25.1067 8.09333 25.4667 8.6 25.84C9.12 26.2133 9.52 26.6533 9.8 27.16C10.08 27.6667 10.22 28.2933 10.22 29.04ZM24.4756 33H20.6356L14.4156 22.2H14.3356C14.349 22.5333 14.3623 22.8733 14.3756 23.22C14.389 23.5533 14.4023 23.8933 14.4156 24.24C14.4423 24.5733 14.4623 24.9133 14.4756 25.26C14.489 25.5933 14.5023 25.9333 14.5156 26.28V33H11.8156V18.72H15.6356L21.8356 29.42H21.8956C21.8823 29.0867 21.869 28.76 21.8556 28.44C21.8423 28.1067 21.829 27.78 21.8156 27.46C21.8156 27.1267 21.809 26.8 21.7956 26.48C21.7823 26.1467 21.769 25.8133 21.7556 25.48V18.72H24.4756V33ZM62.8908 18.72L59.2508 33H55.8108L53.8708 25.5C53.8308 25.3533 53.7774 25.1333 53.7108 24.84C53.6574 24.5467 53.5908 24.2267 53.5108 23.88C53.4441 23.5333 53.3841 23.2067 53.3308 22.9C53.2774 22.58 53.2374 22.3333 53.2108 22.16C53.1974 22.3333 53.1574 22.58 53.0908 22.9C53.0374 23.2067 52.9774 23.5333 52.9108 23.88C52.8441 24.2133 52.7774 24.5333 52.7108 24.84C52.6441 25.1333 52.5908 25.36 52.5508 25.52L50.6308 33H47.1908L43.5508 18.72H46.5308L48.3508 26.52C48.4041 26.7467 48.4641 27.0267 48.5308 27.36C48.5974 27.68 48.6641 28.02 48.7308 28.38C48.7974 28.7267 48.8574 29.0667 48.9108 29.4C48.9774 29.7333 49.0241 30.02 49.0508 30.26C49.0774 30.0067 49.1174 29.72 49.1708 29.4C49.2241 29.0667 49.2841 28.7333 49.3508 28.4C49.4174 28.0533 49.4774 27.7333 49.5308 27.44C49.5974 27.1333 49.6574 26.8933 49.7108 26.72L51.7908 18.72H54.6508L56.7308 26.72C56.7708 26.8933 56.8241 27.1333 56.8908 27.44C56.9574 27.7333 57.0241 28.0533 57.0908 28.4C57.1574 28.7467 57.2174 29.0867 57.2708 29.42C57.3241 29.74 57.3641 30.02 57.3908 30.26C57.4308 29.9267 57.4908 29.5333 57.5708 29.08C57.6508 28.6133 57.7374 28.1467 57.8308 27.68C57.9374 27.2133 58.0241 26.8267 58.0908 26.52L59.9108 18.72H62.8908ZM68.1267 18.72C69.3934 18.72 70.4534 18.84 71.3067 19.08C72.1734 19.3067 72.8201 19.6867 73.2467 20.22C73.6867 20.74 73.9067 21.4467 73.9067 22.34C73.9067 22.8733 73.8201 23.36 73.6467 23.8C73.4734 24.24 73.2201 24.6 72.8867 24.88C72.5667 25.16 72.1734 25.34 71.7067 25.42V25.52C72.1867 25.6133 72.6201 25.78 73.0067 26.02C73.3934 26.26 73.7001 26.6067 73.9267 27.06C74.1534 27.5133 74.2667 28.1133 74.2667 28.86C74.2667 29.7267 74.0534 30.4733 73.6267 31.1C73.2134 31.7133 72.6134 32.1867 71.8267 32.52C71.0401 32.84 70.1067 33 69.0267 33H63.6867V18.72H68.1267ZM68.4667 24.38C69.3467 24.38 69.9534 24.24 70.2867 23.96C70.6334 23.68 70.8067 23.2733 70.8067 22.74C70.8067 22.1933 70.6067 21.8 70.2067 21.56C69.8067 21.32 69.1734 21.2 68.3067 21.2H66.7067V24.38H68.4667ZM66.7067 26.78V30.5H68.6867C69.5934 30.5 70.2267 30.3267 70.5867 29.98C70.9467 29.62 71.1267 29.1467 71.1267 28.56C71.1267 28.2 71.0467 27.8867 70.8867 27.62C70.7401 27.3533 70.4801 27.1467 70.1067 27C69.7334 26.8533 69.2267 26.78 68.5867 26.78H66.7067ZM84.8642 33L83.8242 29.6H78.6242L77.5842 33H74.3242L79.3642 18.66H83.0642L88.1242 33H84.8642ZM82.0642 23.74C81.9976 23.5133 81.9109 23.2267 81.8042 22.88C81.6976 22.5333 81.5909 22.18 81.4842 21.82C81.3776 21.46 81.2909 21.1467 81.2242 20.88C81.1576 21.1467 81.0642 21.48 80.9442 21.88C80.8376 22.2667 80.7309 22.64 80.6242 23C80.5309 23.3467 80.4576 23.5933 80.4042 23.74L79.3842 27.06H83.1042L82.0642 23.74ZM88.9328 33V18.72H91.9528V30.5H97.7528V33H88.9328ZM99.2414 33V18.72H102.261V30.5H108.061V33H99.2414Z" fill="white"/>
<circle cx="35" cy="26" r="8" fill="white"/>
<circle cx="36.5" cy="23.5" r="2.5" fill="#63B1A8"/>
</svg>
