<svg width="94" height="94" viewBox="0 0 94 94" fill="none" xmlns="http://www.w3.org/2000/svg">
<rect width="94" height="94" rx="47" fill="#FCDDAE"/>
<path d="M72.6089 46.7982C72.6832 46.0862 72.7219 45.3638 72.7219 44.6321C72.7219 33.2471 63.4926 24.0177 52.1075 24.0177H42.9454C31.5604 24.0177 22.331 33.2471 22.331 44.6321C22.331 45.3638 22.3698 46.0862 22.4441 46.7982C20.2042 47.447 18.5659 49.512 18.5659 51.9611C18.5659 54.9301 20.9728 57.3371 23.9418 57.3371C24.7878 57.3371 25.5878 57.1411 26.3 56.7929C30.0502 61.9176 36.1086 65.2466 42.9454 65.2466H52.1075C58.9444 65.2466 65.0026 61.9175 68.753 56.7929C69.4651 57.1411 70.2651 57.3371 71.1111 57.3371C74.0801 57.3371 76.4869 54.9302 76.4869 51.9611C76.487 49.512 74.8488 47.447 72.6089 46.7982Z" fill="#C49A8B"/>
<path d="M53.2814 39.7093L73.0919 50.7618C74.5969 47.9669 74.6833 42.6246 74.6833 42.6246C73.8395 31.0146 64.1536 21.8573 52.3282 21.8573H42.3656C29.9857 21.8573 19.9498 31.8932 19.9498 44.2731C19.9498 50.8428 22.7761 56.7521 27.2792 60.8521C26.0885 62.3483 24.2963 64.3345 22.9261 64.6898C20.1128 65.4192 18.301 69.8388 18.3491 70.5123C18.4555 72.0016 22.2026 74.3954 23.5857 73.9699C23.8556 73.887 23.9004 70.046 26.6251 69.1702C28.3022 68.6311 29.8238 65.7981 30.8148 63.4865C31.9265 64.1562 33.102 64.7301 34.3285 65.2015C32.4183 67.8638 31.2933 71.1273 31.2933 74.6539V79.0426H63.76V74.6539C63.76 71.079 62.6036 67.7749 60.6458 65.093C63.7612 63.8472 66.5325 61.9239 68.7752 59.5029C68.7752 59.5029 59.3069 58.986 49.7015 58.566C48.99 58.4707 48.2642 58.4205 47.5266 58.4205C47.2622 58.4205 46.9993 58.4274 46.7378 58.4399C41.3878 58.2191 36.2973 58.0487 33.1148 58.0371C31.3396 58.0307 29.8703 56.6569 29.7438 54.8863L29.0688 45.4358L31.5216 44.0123C38.0942 40.1978 45.7513 38.6835 53.2814 39.7093Z" fill="#F4DAB5"/>
<path d="M52.4264 67.3881C53.4186 68.913 54.0025 70.7718 54.0025 72.7792V73.7186C54.0025 75.181 52.817 76.3665 51.3547 76.3665H36.6904V79.0424H58.3625V74.8959C58.3625 71.9804 57.2094 69.3358 55.3364 67.3883H52.4264V67.3881Z" fill="#DBA2B3"/>
<path d="M53.2812 39.7093C45.7511 38.6835 38.094 40.1978 31.5211 44.0123L29.0684 45.4358L29.7433 54.8863C29.8698 56.6569 31.3392 58.0306 33.1144 58.0371C40.866 58.0651 59.9364 59.0357 66.5065 59.3818C69.0754 56.8735 70.9914 53.7003 71.9762 50.1397L53.2812 39.7093ZM60.0826 55.6749C55.3559 55.4572 41.6362 54.8467 36.0595 54.8291C34.7825 54.825 33.7253 53.961 33.6343 52.8471L33.1487 46.9024L34.9133 46.0069C39.6419 43.6074 45.1506 42.655 50.5679 43.3002L64.0178 49.8613C63.3092 52.101 61.9307 54.0971 60.0826 55.6749Z" fill="#B2748A"/>
<path d="M23.3275 13.9064L24.4031 16.9309C24.4491 17.0603 24.5403 17.163 24.6554 17.2147L27.3425 18.4254C27.7221 18.5965 27.7221 19.2013 27.3425 19.3724L24.6554 20.583C24.5404 20.6348 24.4493 20.7374 24.4031 20.8669L23.3275 23.8914C23.1756 24.3187 22.6382 24.3187 22.4862 23.8914L21.4106 20.8669C21.3646 20.7374 21.2734 20.6348 21.1583 20.583L18.4712 19.3724C18.0916 19.2013 18.0916 18.5965 18.4712 18.4254L21.1583 17.2147C21.2733 17.163 21.3645 17.0603 21.4106 16.9309L22.4862 13.9064C22.6381 13.4791 23.1755 13.4791 23.3275 13.9064Z" fill="#FAF1A9"/>
<path d="M73.9684 70.976L74.7664 73.2195C74.8005 73.3156 74.8682 73.3916 74.9535 73.4301L76.9468 74.3281C77.2284 74.455 77.2284 74.9037 76.9468 75.0306L74.9535 75.9287C74.8682 75.9672 74.8005 76.0433 74.7664 76.1393L73.9684 78.3827C73.8558 78.6998 73.4571 78.6998 73.3443 78.3827L72.5464 76.1393C72.5122 76.0432 72.4446 75.9672 72.3593 75.9287L70.3659 75.0306C70.0844 74.9037 70.0844 74.455 70.3659 74.3281L72.3593 73.4301C72.4446 73.3916 72.5122 73.3154 72.5464 73.2195L73.3443 70.976C73.4571 70.659 73.8558 70.659 73.9684 70.976Z" fill="#FAF1A9"/>
<path d="M77.1088 66.7098C77.6683 66.7098 78.1219 66.2562 78.1219 65.6967C78.1219 65.1372 77.6683 64.6836 77.1088 64.6836C76.5493 64.6836 76.0957 65.1372 76.0957 65.6967C76.0957 66.2562 76.5493 66.7098 77.1088 66.7098Z" fill="#F6E06E"/>
<path d="M16.5302 26.7335C16.5302 27.293 16.0766 27.7467 15.5171 27.7467C14.9576 27.7467 14.5039 27.293 14.5039 26.7335C14.5039 26.1739 14.9576 25.7202 15.5171 25.7202C16.0767 25.7204 16.5302 26.1739 16.5302 26.7335Z" fill="#F6E06E"/>
<path d="M76.3063 23.0835L77.1043 25.327C77.1384 25.4231 77.2061 25.4991 77.2914 25.5376L79.2847 26.4356C79.5664 26.5625 79.5664 27.0112 79.2847 27.1381L77.2914 28.0362C77.2061 28.0747 77.1384 28.1508 77.1043 28.2468L76.3063 30.4902C76.1937 30.8072 75.795 30.8072 75.6822 30.4902L74.8843 28.2468C74.8501 28.1507 74.7824 28.0747 74.6972 28.0362L72.7038 27.1381C72.4223 27.0112 72.4223 26.5625 72.7038 26.4356L74.6972 25.5376C74.7824 25.4991 74.8501 25.4229 74.8843 25.327L75.6822 23.0835C75.795 22.7665 76.1937 22.7665 76.3063 23.0835Z" fill="#FAF1A9"/>
<path d="M36.1241 55.2683C37.2985 54.7815 37.856 53.4348 37.3692 52.2604C36.8824 51.086 35.5357 50.5286 34.3613 51.0154C33.1869 51.5022 32.6295 52.8488 33.1163 54.0232C33.6031 55.1976 34.9497 55.7551 36.1241 55.2683Z" fill="#3C122C"/>
<path d="M60.3525 55.3618C61.5892 55.0695 62.3547 53.83 62.0624 52.5933C61.7701 51.3566 60.5306 50.5911 59.2939 50.8834C58.0572 51.1757 57.2917 52.4153 57.584 53.6519C57.8763 54.8886 59.1158 55.6542 60.3525 55.3618Z" fill="#3C122C"/>
<path d="M37.0912 47.1184C36.9709 47.1184 36.849 47.0907 36.7347 47.0323C36.731 47.0305 36.043 46.6921 35.2275 46.6921C34.4121 46.6921 33.7241 47.0305 33.7171 47.0339C33.33 47.2269 32.8582 47.0716 32.6634 46.6856C32.4685 46.2995 32.6207 45.8294 33.0059 45.6327C33.1086 45.5803 34.0432 45.1207 35.2275 45.1207C36.4119 45.1207 37.3464 45.5803 37.449 45.6327C37.8354 45.83 37.9889 46.3032 37.7916 46.6897C37.6527 46.9618 37.3772 47.1184 37.0912 47.1184Z" fill="#3C122C"/>
<path d="M61.6889 47.1184C61.5687 47.1184 61.4467 47.0907 61.3324 47.0323C61.3287 47.0305 60.6406 46.6921 59.8251 46.6921C59.0096 46.6921 58.3216 47.0305 58.3147 47.0339C57.9282 47.2266 57.4559 47.0717 57.2611 46.6856C57.0661 46.2994 57.2184 45.8293 57.6035 45.6328C57.7061 45.5804 58.6407 45.1209 59.8251 45.1209C61.0094 45.1209 61.944 45.5804 62.0466 45.6328C62.433 45.8301 62.5865 46.3034 62.3892 46.6897C62.2504 46.9618 61.9747 47.1184 61.6889 47.1184Z" fill="#3C122C"/>
<path d="M47.5265 56.2309C45.8243 56.2309 44.4395 54.846 44.4395 53.1439C44.4395 52.71 44.7913 52.3582 45.2251 52.3582C45.659 52.3582 46.0108 52.71 46.0108 53.1439C46.0108 53.9796 46.6907 54.6595 47.5265 54.6595C48.3622 54.6595 49.0421 53.9796 49.0421 53.1439C49.0421 52.71 49.394 52.3582 49.8278 52.3582C50.2617 52.3582 50.6135 52.71 50.6135 53.1439C50.6134 54.846 49.2286 56.2309 47.5265 56.2309Z" fill="#3C122C"/>
<path d="M75.7842 47.1888C76.1332 45.0302 76.1701 43.1389 76.1724 43.005C76.173 42.9662 76.1718 42.9275 76.1691 42.8888C75.7355 36.9243 73.082 31.3844 68.6973 27.2892C64.2905 23.1735 58.541 20.9068 52.5078 20.9068H42.5452C29.4631 20.9068 18.8199 31.55 18.8199 44.6321C18.8199 45.595 18.8791 46.5442 18.9911 47.4775C17.9149 48.6643 17.2565 50.2366 17.2565 51.9611C17.2565 55.4636 19.9645 58.3435 23.3964 58.6223C24.0183 59.4711 24.6942 60.2778 25.4206 61.036C24.3794 62.2217 23.2886 63.2432 22.5974 63.4223C19.1789 64.3085 16.9484 69.2846 17.0429 70.6057C17.1465 72.0548 18.6701 73.304 19.5691 73.9197C20.1031 74.2855 21.7548 75.3273 23.2217 75.3273C23.4792 75.3273 23.7314 75.2951 23.9706 75.2215C24.7654 74.977 24.9217 74.2645 25.0598 73.636C25.2734 72.6632 25.6709 70.8524 27.0256 70.4169C28.521 69.9362 29.928 68.3343 31.3168 65.5274C31.6294 65.696 31.9458 65.8586 32.2666 66.0134C30.8155 68.5658 29.9837 71.5139 29.9837 74.6539V79.0426C29.9837 79.7658 30.57 80.352 31.2932 80.352C32.0164 80.352 32.6026 79.7657 32.6026 79.0426V78.4481L35.9047 79.221V79.5396C35.9047 79.9734 36.2564 80.3252 36.6904 80.3252C37.1243 80.3252 37.4761 79.9734 37.4761 79.5396V76.3465L57.5768 76.9264V76.9392C57.5328 77.0851 57.5309 77.2432 57.5768 77.394V79.5397C57.5768 79.9735 57.9287 80.3254 58.3625 80.3254C58.7964 80.3254 59.1482 79.9735 59.1482 79.5397V77.5975L62.4504 75.6712V79.0427C62.4504 79.7659 63.0367 80.3521 63.7599 80.3521C64.483 80.3521 65.0692 79.7658 65.0692 79.0427V74.654C65.0692 71.5116 64.2382 68.5598 62.785 66.006C65.4465 64.7269 67.8751 62.9542 69.9153 60.752C70.2603 60.3795 70.3589 59.8415 70.1685 59.3709C69.9782 58.9006 69.5336 58.5827 69.0271 58.5548C69.0803 58.4901 69.1336 58.4256 69.1862 58.3604C69.7962 58.5449 70.4417 58.6467 71.1112 58.6467C74.7975 58.6467 77.7965 55.6477 77.7965 51.9614C77.7964 50.0927 77.0243 48.4028 75.7842 47.1888ZM73.5527 43.0197C73.5433 43.4558 73.5086 44.1228 73.4351 44.8968C66.056 39.9302 59.3851 36.4376 52.3941 33.8982C54.9923 33.4901 57.6556 33.1635 60.3822 32.9181C64.9641 34.9424 68.8461 37.2037 73.0803 39.91C73.3125 40.9206 73.4725 41.9587 73.5527 43.0197ZM44.4587 35.4433C46.004 35.0809 47.5756 34.7505 49.1729 34.4517C57.2499 37.0728 64.7383 40.8712 73.2176 46.6467C73.0779 47.5413 72.8865 48.4585 72.6279 49.2625L54.0989 38.9248C54.0857 38.9175 54.0718 38.9115 54.0583 38.9046C54.0475 38.899 54.0373 38.8925 54.0262 38.8872C50.8957 37.3888 47.7328 36.2502 44.4587 35.4433ZM45.9837 38.5717C40.7454 39.0017 35.6148 40.586 31.0436 43.239L30.342 43.6461L30.0112 40.0735C32.7989 38.9086 35.7001 37.874 38.7127 36.9715C38.8169 37.016 38.9279 37.0488 39.0455 37.0653C41.4265 37.3982 43.7288 37.898 45.9837 38.5717ZM69.688 32.4015C70.8287 33.9945 71.7545 35.7525 72.4195 37.6338C69.4845 35.7989 66.6561 34.1677 63.5768 32.669C65.5812 32.5373 67.6185 32.4481 69.688 32.4015ZM42.5451 23.5258H52.5077C55.4189 23.5258 58.2069 24.1269 60.7481 25.2136C53.6727 25.7746 46.9741 26.8671 40.7913 28.4753C34.8074 30.0316 29.1564 32.1102 23.9454 34.664C27.5101 28.0395 34.5101 23.5258 42.5451 23.5258ZM22.8824 36.9604C34.2814 31.0168 47.9138 27.5349 63.4386 26.6007C64.9339 27.5118 66.3107 28.6029 67.5358 29.8457C58.4569 30.1771 49.9533 31.3243 42.2268 33.2681C34.836 35.1273 27.9549 37.766 21.7329 41.118C21.9753 39.6779 22.3631 38.2865 22.8824 36.9604ZM19.8753 51.9611C19.8753 51.8642 19.8796 51.7683 19.8862 51.6731C20.2373 52.8005 20.6706 53.8919 21.1786 54.9407C20.3777 54.1978 19.8753 53.1374 19.8753 51.9611ZM21.4387 44.6323C21.4387 44.5116 21.4413 44.3917 21.4432 44.2716C22.0832 43.9076 22.7294 43.5504 23.3843 43.2029L24.3362 55.294C22.496 52.163 21.4387 48.519 21.4387 44.6323ZM24.8988 42.4198C25.7485 41.9926 26.6098 41.5786 27.4833 41.1784L27.9034 45.7141C27.9107 45.793 27.9255 45.8691 27.9459 45.9429L28.6171 55.3387C28.6506 55.8071 28.7537 56.2558 28.915 56.6758L26.0029 56.4429L24.8988 42.4198ZM26.2242 67.9236C23.7537 68.7177 22.9582 71.1484 22.6146 72.5778C22.2572 72.4541 21.7754 72.2332 21.2154 71.8699C20.2678 71.2551 19.7962 70.6826 19.6759 70.4427C19.9017 69.4922 21.4295 66.4303 23.2547 65.9574C24.6063 65.607 26.1174 64.2124 27.3413 62.8306C27.8978 63.2962 28.476 63.7366 29.0737 64.1505C28.1635 66.0253 27.109 67.6393 26.2242 67.9236ZM27.2583 59.1707L32.1634 59.5631C32.525 59.6547 32.9021 59.7043 33.2894 59.7056C37.6991 59.7216 45.8735 60.0484 53.2777 60.3893L32.7478 63.3221C30.6965 62.2425 28.8429 60.8359 27.2583 59.1707ZM56.872 67.9482C58.0533 67.7257 59.214 67.4146 60.3439 67.0184C60.9106 67.9661 61.374 68.982 61.7214 70.0498L57.969 69.7555C57.6572 69.1187 57.2905 68.5135 56.872 67.9482ZM56.6451 70.6306C56.6672 70.762 56.7218 70.8829 56.8015 70.9845C56.9994 71.4576 57.1627 71.9484 57.287 72.4547L38.8829 69.7316C39.2031 69.1933 39.5707 68.6863 39.9826 68.2185C40.8247 68.3094 41.6793 68.3573 42.5452 68.3573H52.5078C53.3675 68.3573 54.2228 68.3089 55.0706 68.2159C55.7049 68.9368 56.2359 69.75 56.6451 70.6306ZM33.0141 71.1738L37.1605 69.6011C36.705 70.4969 36.3613 71.4585 36.1502 72.4687L32.7423 72.6107C32.8095 72.1238 32.9009 71.6447 33.0141 71.1738ZM33.6111 69.2668C33.9149 68.4859 34.2819 67.7364 34.7069 67.0251C35.6018 67.3392 36.5214 67.6003 37.4613 67.8063L33.6111 69.2668ZM32.6024 76.8341V74.6539C32.6024 74.4982 32.6057 74.3434 32.6105 74.1889L35.9339 74.0504C35.916 74.3141 35.9047 74.5797 35.9047 74.8481V77.6071L32.6024 76.8341ZM37.4778 74.7745C37.4812 74.3126 37.5151 73.8582 37.5791 73.413C37.5881 73.3761 37.5942 73.3381 37.5977 73.2995C37.7104 72.5758 37.8991 71.8771 38.1581 71.213L57.5453 74.0814C57.5645 74.3348 57.5768 74.5899 57.5768 74.8481V75.3544L37.4778 74.7745ZM58.6178 71.3825L62.1473 71.6593C62.2943 72.3772 62.3882 73.114 62.4276 73.8652L59.1482 75.7782V74.8481C59.1481 73.6411 58.9609 72.4776 58.6178 71.3825ZM52.5077 65.7385H42.5451C40.0668 65.7385 37.6875 65.3078 35.4765 64.5197L61.5839 60.79C63.2157 60.8721 64.6586 60.9464 65.8206 61.007C62.0811 64.0411 57.3679 65.7385 52.5077 65.7385ZM65.6471 58.3756C58.3192 57.9943 41.0318 57.1333 33.5532 57.0882C33.453 57.0543 33.3478 57.0307 33.2376 57.0218L32.6401 56.9739C31.8681 56.7099 31.2901 56.0037 31.2293 55.1522L30.6125 46.5172L32.3582 45.5041C38.5768 41.8951 45.9125 40.4178 53.0413 41.3339L70.3379 50.9839C69.3531 53.8018 67.731 56.3222 65.6471 58.3756ZM71.1111 56.0276C71.0177 56.0276 70.9254 56.0236 70.8336 56.0173C71.5532 54.8379 72.1646 53.5859 72.654 52.2746C72.9557 52.4361 73.3091 52.4741 73.6384 52.378C73.975 52.2797 74.2582 52.0506 74.4244 51.7418C74.6155 51.3868 74.7855 50.9986 74.9372 50.5898C75.0916 51.0187 75.1775 51.4798 75.1775 51.9611C75.1775 54.2034 73.3533 56.0276 71.1111 56.0276Z" fill="#3C122C"/>
</svg>
